{
  "asset": {
    "version": "2.0",
    "generator": "gltf-builder"
  },
  "scenes": [
    {
      "nodes": [
        0
      ]
    }
  ],
  "nodes": [
    {
      "children": [
        1,
        2
      ]
    },
    {
      "children": [
        3
      ]
    },
    {
      "translation": [
        0,
        0.1,
        0
      ],
      "children": [
        4,
        5
      ]
    },
    {
      "mesh": 0
    },
    {
      "scale": [
        -1,
        1,
        1
      ],
      "mesh": 1
    },
    {
      "mesh": 1
    }
  ],
  "meshes": [
    {
      "primitives": [
        {
          "indices": 1,
          "attributes": {
            "POSITION": 0
          }
        }
      ]
    },
    {
      "primitives": [
        {
          "indices": 3,
          "material": 0,
          "attributes": {
            "POSITION": 2
          }
        }
      ]
    }
  ],
  "accessors": [
    {
      "componentType": 5126,
      "type": "VEC3",
      "min": [
        -0.014999999664723873,
        0,
        -0.014265848323702812
      ],
      "max": [
        0.014999999664723873,
        1,
        0.014265848323702812
      ],
      "count": 20,
      "bufferView": 0
    },
    {
      "componentType": 5123,
      "type": "SCALAR",
      "min": [
        0
      ],
      "max": [
        19
      ],
      "count": 60,
      "bufferView": 1
    },
    {
      "componentType": 5126,
      "type": "VEC3",
      "min": [
        0,
        0,
        0
      ],
      "max": [
        0.20780231058597565,
        0.8999999761581421,
        0
      ],
      "count": 20,
      "bufferView": 2
    },
    {
      "componentType": 5123,
      "type": "SCALAR",
      "min": [
        0
      ],
      "max": [
        19
      ],
      "count": 54,
      "bufferView": 3
    }
  ],
  "materials": [
    {
      "doubleSided": true
    }
  ],
  "bufferViews": [
    {
      "byteLength": 240,
      "buffer": 0
    },
    {
      "byteLength": 120,
      "buffer": 1
    },
    {
      "byteLength": 240,
      "buffer": 2
    },
    {
      "byteLength": 108,
      "buffer": 3
    }
  ],
  "buffers": [
    {
      "uri": "data:application/octet-stream;base64,",
      "byteLength": 240
    },
    {
      "uri": "data:application/octet-stream;base64,",
      "byteLength": 120
    },
    {
      "uri": "data:application/octet-stream;base64,",
      "byteLength": 240
    },
    {
      "uri": "data:application/octet-stream;base64,",
      "byteLength": 108
    }
  ]
}