{
  "asset": {
    "version": "2.0",
    "generator": "gltf-builder"
  },
  "scenes": [
    {
      "nodes": [
        0
      ]
    }
  ],
  "nodes": [
    {
      "children": [
        1,
        2,
        3,
        4,
        5,
        6,
        7
      ]
    },
    {
      "mesh": 0
    },
    {
      "mesh": 1
    },
    {
      "mesh": 2
    },
    {
      "mesh": 3
    },
    {
      "mesh": 4
    },
    {
      "children": [
        8,
        9
      ]
    },
    {
      "children": [
        10,
        11
      ]
    },
    {
      "mesh": 5
    },
    {
      "mesh": 6
    },
    {
      "mesh": 7
    },
    {
      "mesh": 8
    }
  ],
  "meshes": [
    {
      "primitives": [
        {
          "indices": 1,
          "attributes": {
            "POSITION": 0
          }
        }
      ]
    },
    {
      "primitives": [
        {
          "indices": 3,
          "attributes": {
            "POSITION": 2
          }
        }
      ]
    },
    {
      "primitives": [
        {
          "indices": 5,
          "attributes": {
            "POSITION": 4
          }
        }
      ]
    },
    {
      "primitives": [
        {
          "indices": 7,
          "attributes": {
            "POSITION": 6
          }
        }
      ]
    },
    {
      "primitives": [
        {
          "indices": 9,
          "attributes": {
            "POSITION": 8
          }
        }
      ]
    },
    {
      "primitives": [
        {
          "indices": 11,
          "attributes": {
            "POSITION": 10
          }
        }
      ]
    },
    {
      "primitives": [
        {
          "indices": 13,
          "attributes": {
            "POSITION": 12
          }
        }
      ]
    },
    {
      "primitives": [
        {
          "indices": 15,
          "attributes": {
            "POSITION": 14
          }
        }
      ]
    },
    {
      "primitives": [
        {
          "indices": 17,
          "attributes": {
            "POSITION": 16
          }
        }
      ]
    }
  ],
  "accessors": [
    {
      "componentType": 5126,
      "type": "VEC3",
      "min": [
        -0.5,
        0,
        -0.4755282700061798
      ],
      "max": [
        0.5,
        1,
        0.4755282700061798
      ],
      "count": 20,
      "bufferView": 0
    },
    {
      "componentType": 5123,
      "type": "SCALAR",
      "min": [
        0
      ],
      "max": [
        19
      ],
      "count": 60,
      "bufferView": 1
    },
    {
      "componentType": 5126,
      "type": "VEC3",
      "min": [
        -0.5,
        1,
        -0.4755282700061798
      ],
      "max": [
        1,
        2,
        0.4755282700061798
      ],
      "count": 20,
      "bufferView": 2
    },
    {
      "componentType": 5123,
      "type": "SCALAR",
      "min": [
        0
      ],
      "max": [
        19
      ],
      "count": 60,
      "bufferView": 3
    },
    {
      "componentType": 5126,
      "type": "VEC3",
      "min": [
        0,
        2,
        -0.9755282402038574
      ],
      "max": [
        1,
        3,
        0.4755282700061798
      ],
      "count": 20,
      "bufferView": 4
    },
    {
      "componentType": 5123,
      "type": "SCALAR",
      "min": [
        0
      ],
      "max": [
        19
      ],
      "count": 60,
      "bufferView": 5
    },
    {
      "componentType": 5126,
      "type": "VEC3",
      "min": [
        -0.5,
        3,
        -0.9755282402038574
      ],
      "max": [
        1,
        4.5,
        0.4755282700061798
      ],
      "count": 20,
      "bufferView": 6
    },
    {
      "componentType": 5123,
      "type": "SCALAR",
      "min": [
        0
      ],
      "max": [
        19
      ],
      "count": 60,
      "bufferView": 7
    },
    {
      "componentType": 5126,
      "type": "VEC3",
      "min": [
        -0.5,
        4.5,
        -0.4755282700061798
      ],
      "max": [
        0.5,
        6.5,
        0.4755282700061798
      ],
      "count": 20,
      "bufferView": 8
    },
    {
      "componentType": 5123,
      "type": "SCALAR",
      "min": [
        0
      ],
      "max": [
        19
      ],
      "count": 60,
      "bufferView": 9
    },
    {
      "componentType": 5126,
      "type": "VEC3",
      "min": [
        0.30000001192092896,
        2,
        -0.19021131098270416
      ],
      "max": [
        1.7000000476837158,
        3,
        0.19021131098270416
      ],
      "count": 20,
      "bufferView": 10
    },
    {
      "componentType": 5123,
      "type": "SCALAR",
      "min": [
        0
      ],
      "max": [
        19
      ],
      "count": 60,
      "bufferView": 11
    },
    {
      "componentType": 5126,
      "type": "VEC3",
      "min": [
        1.2999999523162842,
        3,
        -0.19021131098270416
      ],
      "max": [
        1.7000000476837158,
        4,
        0.2951056659221649
      ],
      "count": 20,
      "bufferView": 12
    },
    {
      "componentType": 5123,
      "type": "SCALAR",
      "min": [
        0
      ],
      "max": [
        19
      ],
      "count": 60,
      "bufferView": 13
    },
    {
      "componentType": 5126,
      "type": "VEC3",
      "min": [
        -1.2000000476837158,
        3,
        -0.7902113199234009
      ],
      "max": [
        0.699999988079071,
        4,
        -0.30978870391845703
      ],
      "count": 20,
      "bufferView": 14
    },
    {
      "componentType": 5123,
      "type": "SCALAR",
      "min": [
        0
      ],
      "max": [
        19
      ],
      "count": 60,
      "bufferView": 15
    },
    {
      "componentType": 5126,
      "type": "VEC3",
      "min": [
        -1.2000000476837158,
        4,
        -0.7902113199234009
      ],
      "max": [
        -0.800000011920929,
        4.5,
        -0.40978869795799255
      ],
      "count": 20,
      "bufferView": 16
    },
    {
      "componentType": 5123,
      "type": "SCALAR",
      "min": [
        0
      ],
      "max": [
        19
      ],
      "count": 60,
      "bufferView": 17
    }
  ],
  "bufferViews": [
    {
      "byteLength": 240,
      "buffer": 0
    },
    {
      "byteLength": 120,
      "buffer": 1
    },
    {
      "byteLength": 240,
      "buffer": 2
    },
    {
      "byteLength": 120,
      "buffer": 3
    },
    {
      "byteLength": 240,
      "buffer": 4
    },
    {
      "byteLength": 120,
      "buffer": 5
    },
    {
      "byteLength": 240,
      "buffer": 6
    },
    {
      "byteLength": 120,
      "buffer": 7
    },
    {
      "byteLength": 240,
      "buffer": 8
    },
    {
      "byteLength": 120,
      "buffer": 9
    },
    {
      "byteLength": 240,
      "buffer": 10
    },
    {
      "byteLength": 120,
      "buffer": 11
    },
    {
      "byteLength": 240,
      "buffer": 12
    },
    {
      "byteLength": 120,
      "buffer": 13
    },
    {
      "byteLength": 240,
      "buffer": 14
    },
    {
      "byteLength": 120,
      "buffer": 15
    },
    {
      "byteLength": 240,
      "buffer": 16
    },
    {
      "byteLength": 120,
      "buffer": 17
    }
  ],
  "buffers": [
    {
      "uri": "data:application/octet-stream;base64,",
      "byteLength": 240
    },
    {
      "uri": "data:application/octet-stream;base64,",
      "byteLength": 120
    },
    {
      "uri": "data:application/octet-stream;base64,",
      "byteLength": 240
    },
    {
      "uri": "data:application/octet-stream;base64,",
      "byteLength": 120
    },
    {
      "uri": "data:application/octet-stream;base64,",
      "byteLength": 240
    },
    {
      "uri": "data:application/octet-stream;base64,",
      "byteLength": 120
    },
    {
      "uri": "data:application/octet-stream;base64,",
      "byteLength": 240
    },
    {
      "uri": "data:application/octet-stream;base64,",
      "byteLength": 120
    },
    {
      "uri": "data:application/octet-stream;base64,",
      "byteLength": 240
    },
    {
      "uri": "data:application/octet-stream;base64,",
      "byteLength": 120
    },
    {
      "uri": "data:application/octet-stream;base64,",
      "byteLength": 240
    },
    {
      "uri": "data:application/octet-stream;base64,",
      "byteLength": 120
    },
    {
      "uri": "data:application/octet-stream;base64,",
      "byteLength": 240
    },
    {
      "uri": "data:application/octet-stream;base64,",
      "byteLength": 120
    },
    {
      "uri": "data:application/octet-stream;base64,",
      "byteLength": 240
    },
    {
      "uri": "data:application/octet-stream;base64,",
      "byteLength": 120
    },
    {
      "uri": "data:application/octet-stream;base64,",
      "byteLength": 240
    },
    {
      "uri": "data:application/octet-stream;base64,",
      "byteLength": 120
    }
  ]
}