{
  "asset": {
    "version": "2.0",
    "generator": "gltf-builder"
  },
  "scenes": [
    {
      "nodes": [
        0
      ]
    }
  ],
  "nodes": [
    {
      "children": [
        1,
        2,
        3,
        4,
        5,
        6,
        7,
        8,
        9,
        10
      ]
    },
    {
      "children": [
        11
      ]
    },
    {
      "children": [
        12
      ]
    },
    {
      "children": [
        13
      ]
    },
    {
      "children": [
        14
      ]
    },
    {
      "children": [
        15
      ]
    },
    {
      "children": [
        16
      ]
    },
    {
      "children": [
        17
      ]
    },
    {
      "children": [
        18
      ]
    },
    {
      "children": [
        19
      ]
    },
    {
      "children": [
        20
      ]
    },
    {
      "children": [
        21,
        22,
        23
      ]
    },
    {
      "children": [
        24,
        25,
        26,
        27,
        28
      ]
    },
    {
      "children": [
        29,
        30,
        31
      ]
    },
    {
      "children": [
        32,
        33,
        34
      ]
    },
    {
      "children": [
        35
      ]
    },
    {
      "children": [
        36
      ]
    },
    {
      "children": [
        37,
        38
      ]
    },
    {
      "children": [
        39
      ]
    },
    {
      "children": [
        40,
        41
      ]
    },
    {
      "children": [
        42
      ]
    },
    {
      "mesh": 0
    },
    {
      "mesh": 1
    },
    {
      "mesh": 2
    },
    {
      "mesh": 3
    },
    {
      "mesh": 4
    },
    {
      "mesh": 5
    },
    {
      "mesh": 6
    },
    {
      "mesh": 7
    },
    {
      "mesh": 8
    },
    {
      "mesh": 9
    },
    {
      "mesh": 10
    },
    {
      "mesh": 11
    },
    {
      "mesh": 12
    },
    {
      "mesh": 13
    },
    {
      "mesh": 14
    },
    {
      "mesh": 15
    },
    {
      "mesh": 16
    },
    {
      "mesh": 17
    },
    {
      "mesh": 18
    },
    {
      "mesh": 19
    },
    {
      "mesh": 20
    },
    {
      "mesh": 21
    }
  ],
  "meshes": [
    {
      "primitives": [
        {
          "indices": 1,
          "attributes": {
            "POSITION": 0
          }
        }
      ]
    },
    {
      "primitives": [
        {
          "indices": 3,
          "attributes": {
            "POSITION": 2
          }
        }
      ]
    },
    {
      "primitives": [
        {
          "indices": 5,
          "attributes": {
            "POSITION": 4
          }
        }
      ]
    },
    {
      "primitives": [
        {
          "indices": 7,
          "attributes": {
            "POSITION": 6
          }
        }
      ]
    },
    {
      "primitives": [
        {
          "indices": 9,
          "attributes": {
            "POSITION": 8
          }
        }
      ]
    },
    {
      "primitives": [
        {
          "indices": 11,
          "attributes": {
            "POSITION": 10
          }
        }
      ]
    },
    {
      "primitives": [
        {
          "indices": 13,
          "attributes": {
            "POSITION": 12
          }
        }
      ]
    },
    {
      "primitives": [
        {
          "indices": 15,
          "attributes": {
            "POSITION": 14
          }
        }
      ]
    },
    {
      "primitives": [
        {
          "indices": 17,
          "attributes": {
            "POSITION": 16
          }
        }
      ]
    },
    {
      "primitives": [
        {
          "indices": 19,
          "attributes": {
            "POSITION": 18
          }
        }
      ]
    },
    {
      "primitives": [
        {
          "indices": 21,
          "attributes": {
            "POSITION": 20
          }
        }
      ]
    },
    {
      "primitives": [
        {
          "indices": 23,
          "attributes": {
            "POSITION": 22
          }
        }
      ]
    },
    {
      "primitives": [
        {
          "indices": 25,
          "attributes": {
            "POSITION": 24
          }
        }
      ]
    },
    {
      "primitives": [
        {
          "indices": 27,
          "attributes": {
            "POSITION": 26
          }
        }
      ]
    },
    {
      "primitives": [
        {
          "indices": 29,
          "attributes": {
            "POSITION": 28
          }
        }
      ]
    },
    {
      "primitives": [
        {
          "indices": 31,
          "attributes": {
            "POSITION": 30
          }
        }
      ]
    },
    {
      "primitives": [
        {
          "indices": 33,
          "attributes": {
            "POSITION": 32
          }
        }
      ]
    },
    {
      "primitives": [
        {
          "indices": 35,
          "attributes": {
            "POSITION": 34
          }
        }
      ]
    },
    {
      "primitives": [
        {
          "indices": 37,
          "attributes": {
            "POSITION": 36
          }
        }
      ]
    },
    {
      "primitives": [
        {
          "indices": 39,
          "attributes": {
            "POSITION": 38
          }
        }
      ]
    },
    {
      "primitives": [
        {
          "indices": 41,
          "attributes": {
            "POSITION": 40
          }
        }
      ]
    },
    {
      "primitives": [
        {
          "indices": 43,
          "attributes": {
            "POSITION": 42
          }
        }
      ]
    }
  ],
  "accessors": [
    {
      "componentType": 5126,
      "type": "VEC3",
      "min": [
        -1,
        0,
        -0.9510565400123596
      ],
      "max": [
        1,
        1,
        0.9510565400123596
      ],
      "count": 20,
      "bufferView": 0
    },
    {
      "componentType": 5123,
      "type": "SCALAR",
      "min": [
        0
      ],
      "max": [
        19
      ],
      "count": 60,
      "bufferView": 1
    },
    {
      "componentType": 5126,
      "type": "VEC3",
      "min": [
        -0.8999999761581421,
        1,
        -0.8559508919715881
      ],
      "max": [
        0.8999999761581421,
        4,
        0.8559508919715881
      ],
      "count": 20,
      "bufferView": 2
    },
    {
      "componentType": 5123,
      "type": "SCALAR",
      "min": [
        0
      ],
      "max": [
        19
      ],
      "count": 60,
      "bufferView": 3
    },
    {
      "componentType": 5126,
      "type": "VEC3",
      "min": [
        -0.6000000238418579,
        4,
        -0.5706339478492737
      ],
      "max": [
        0.6000000238418579,
        10,
        0.5706339478492737
      ],
      "count": 20,
      "bufferView": 4
    },
    {
      "componentType": 5123,
      "type": "SCALAR",
      "min": [
        0
      ],
      "max": [
        19
      ],
      "count": 60,
      "bufferView": 5
    },
    {
      "componentType": 5126,
      "type": "VEC3",
      "min": [
        -0.8999999761581421,
        0.9145475029945374,
        -0.8516746759414673
      ],
      "max": [
        0.8999999761581421,
        3.056471347808838,
        0.862080454826355
      ],
      "count": 20,
      "bufferView": 6
    },
    {
      "componentType": 5123,
      "type": "SCALAR",
      "min": [
        0
      ],
      "max": [
        19
      ],
      "count": 60,
      "bufferView": 7
    },
    {
      "componentType": 5126,
      "type": "VEC3",
      "min": [
        -0.699999988079071,
        2.9235453605651855,
        -0.46274682879447937
      ],
      "max": [
        0.699999988079071,
        4.041980743408203,
        0.8672833442687988
      ],
      "count": 20,
      "bufferView": 8
    },
    {
      "componentType": 5123,
      "type": "SCALAR",
      "min": [
        0
      ],
      "max": [
        19
      ],
      "count": 60,
      "bufferView": 9
    },
    {
      "componentType": 5126,
      "type": "VEC3",
      "min": [
        -0.6000000238418579,
        3.928044319152832,
        -0.2682828903198242
      ],
      "max": [
        0.6000000238418579,
        7.984018802642822,
        0.8880950212478638
      ],
      "count": 20,
      "bufferView": 10
    },
    {
      "componentType": 5123,
      "type": "SCALAR",
      "min": [
        0
      ],
      "max": [
        19
      ],
      "count": 60,
      "bufferView": 11
    },
    {
      "componentType": 5126,
      "type": "VEC3",
      "min": [
        -0.20000000298023224,
        7.94603967666626,
        0.5095728635787964
      ],
      "max": [
        0.20000000298023224,
        9.955038070678711,
        0.8985008001327515
      ],
      "count": 20,
      "bufferView": 12
    },
    {
      "componentType": 5123,
      "type": "SCALAR",
      "min": [
        0
      ],
      "max": [
        19
      ],
      "count": 60,
      "bufferView": 13
    },
    {
      "componentType": 5126,
      "type": "VEC3",
      "min": [
        0,
        9.955038070678711,
        0.8985008001327515
      ],
      "max": [
        0,
        9.955038070678711,
        0.8985008001327515
      ],
      "count": 20,
      "bufferView": 14
    },
    {
      "componentType": 5123,
      "type": "SCALAR",
      "min": [
        0
      ],
      "max": [
        19
      ],
      "count": 60,
      "bufferView": 15
    },
    {
      "componentType": 5126,
      "type": "VEC3",
      "min": [
        -0.699999988079071,
        2.8577463626861572,
        -0.45280227065086365
      ],
      "max": [
        0.699999988079071,
        4.083442211151123,
        0.9575954079627991
      ],
      "count": 20,
      "bufferView": 16
    },
    {
      "componentType": 5123,
      "type": "SCALAR",
      "min": [
        0
      ],
      "max": [
        19
      ],
      "count": 60,
      "bufferView": 17
    },
    {
      "componentType": 5126,
      "type": "VEC3",
      "min": [
        -0.6000000238418579,
        3.8567073345184326,
        -0.1609230637550354
      ],
      "max": [
        0.6000000238418579,
        5.044614315032959,
        1.0630548000335693
      ],
      "count": 20,
      "bufferView": 18
    },
    {
      "componentType": 5123,
      "type": "SCALAR",
      "min": [
        0
      ],
      "max": [
        19
      ],
      "count": 60,
      "bufferView": 19
    },
    {
      "componentType": 5126,
      "type": "VEC3",
      "min": [
        -0.5,
        4.855668544769287,
        0.13095611333847046
      ],
      "max": [
        0.5,
        9.85047435760498,
        1.5903520584106445
      ],
      "count": 20,
      "bufferView": 20
    },
    {
      "componentType": 5123,
      "type": "SCALAR",
      "min": [
        0
      ],
      "max": [
        19
      ],
      "count": 60,
      "bufferView": 21
    },
    {
      "componentType": 5126,
      "type": "VEC3",
      "min": [
        -0.6000000238418579,
        3.801440954208374,
        -0.14681124687194824
      ],
      "max": [
        0.6000000238418579,
        7.84763240814209,
        1.7621327638626099
      ],
      "count": 20,
      "bufferView": 22
    },
    {
      "componentType": 5123,
      "type": "SCALAR",
      "min": [
        0
      ],
      "max": [
        19
      ],
      "count": 60,
      "bufferView": 23
    },
    {
      "componentType": 5126,
      "type": "VEC3",
      "min": [
        -0.20000000298023224,
        7.7352094650268555,
        1.3987010717391968
      ],
      "max": [
        0.20000000298023224,
        9.702094078063965,
        2.171457290649414
      ],
      "count": 20,
      "bufferView": 24
    },
    {
      "componentType": 5123,
      "type": "SCALAR",
      "min": [
        0
      ],
      "max": [
        19
      ],
      "count": 60,
      "bufferView": 25
    },
    {
      "componentType": 5126,
      "type": "VEC3",
      "min": [
        0,
        9.702094078063965,
        2.171457290649414
      ],
      "max": [
        0,
        9.702094078063965,
        2.171457290649414
      ],
      "count": 20,
      "bufferView": 26
    },
    {
      "componentType": 5123,
      "type": "SCALAR",
      "min": [
        0
      ],
      "max": [
        19
      ],
      "count": 60,
      "bufferView": 27
    },
    {
      "componentType": 5126,
      "type": "VEC3",
      "min": [
        -0.20000000298023224,
        7.717349052429199,
        1.4052207469940186
      ],
      "max": [
        0.20000000298023224,
        9.633543014526367,
        2.3592536449432373
      ],
      "count": 20,
      "bufferView": 28
    },
    {
      "componentType": 5123,
      "type": "SCALAR",
      "min": [
        0
      ],
      "max": [
        19
      ],
      "count": 60,
      "bufferView": 29
    },
    {
      "componentType": 5126,
      "type": "VEC3",
      "min": [
        -0.5,
        4.809613227844238,
        0.1427159607410431
      ],
      "max": [
        0.5,
        9.726823806762695,
        2.074606418609619
      ],
      "count": 20,
      "bufferView": 30
    },
    {
      "componentType": 5123,
      "type": "SCALAR",
      "min": [
        0
      ],
      "max": [
        19
      ],
      "count": 60,
      "bufferView": 31
    },
    {
      "componentType": 5126,
      "type": "VEC3",
      "min": [
        -0.6000000238418579,
        3.871644973754883,
        -0.25975900888442993
      ],
      "max": [
        0.6000000238418579,
        9.865412712097168,
        1.49151611328125
      ],
      "count": 20,
      "bufferView": 32
    },
    {
      "componentType": 5123,
      "type": "SCALAR",
      "min": [
        0
      ],
      "max": [
        19
      ],
      "count": 60,
      "bufferView": 33
    },
    {
      "componentType": 5126,
      "type": "VEC3",
      "min": [
        0,
        9.865412712097168,
        1.49151611328125
      ],
      "max": [
        0,
        9.865412712097168,
        1.49151611328125
      ],
      "count": 20,
      "bufferView": 34
    },
    {
      "componentType": 5123,
      "type": "SCALAR",
      "min": [
        0
      ],
      "max": [
        19
      ],
      "count": 60,
      "bufferView": 35
    },
    {
      "componentType": 5126,
      "type": "VEC3",
      "min": [
        -0.20000000298023224,
        7.927239894866943,
        0.5124142169952393
      ],
      "max": [
        0.20000000298023224,
        9.925162315368652,
        1.096172571182251
      ],
      "count": 20,
      "bufferView": 36
    },
    {
      "componentType": 5123,
      "type": "SCALAR",
      "min": [
        0
      ],
      "max": [
        19
      ],
      "count": 60,
      "bufferView": 37
    },
    {
      "componentType": 5126,
      "type": "VEC3",
      "min": [
        -0.6000000238418579,
        3.9430317878723145,
        -0.5677831172943115
      ],
      "max": [
        0.6000000238418579,
        8.984516143798828,
        0.5937976241111755
      ],
      "count": 20,
      "bufferView": 38
    },
    {
      "componentType": 5123,
      "type": "SCALAR",
      "min": [
        0
      ],
      "max": [
        19
      ],
      "count": 60,
      "bufferView": 39
    },
    {
      "componentType": 5126,
      "type": "VEC3",
      "min": [
        -0.10000000149011612,
        8.965526580810547,
        0.40453654527664185
      ],
      "max": [
        0.10000000149011612,
        9.970026016235352,
        0.5990005135536194
      ],
      "count": 20,
      "bufferView": 40
    },
    {
      "componentType": 5123,
      "type": "SCALAR",
      "min": [
        0
      ],
      "max": [
        19
      ],
      "count": 60,
      "bufferView": 41
    },
    {
      "componentType": 5126,
      "type": "VEC3",
      "min": [
        -0.10000000149011612,
        8.956127166748047,
        0.4059572219848633
      ],
      "max": [
        0.10000000149011612,
        9.955087661743164,
        0.6978363990783691
      ],
      "count": 20,
      "bufferView": 42
    },
    {
      "componentType": 5123,
      "type": "SCALAR",
      "min": [
        0
      ],
      "max": [
        19
      ],
      "count": 60,
      "bufferView": 43
    }
  ],
  "bufferViews": [
    {
      "byteLength": 240,
      "buffer": 0
    },
    {
      "byteLength": 120,
      "buffer": 1
    },
    {
      "byteLength": 240,
      "buffer": 2
    },
    {
      "byteLength": 120,
      "buffer": 3
    },
    {
      "byteLength": 240,
      "buffer": 4
    },
    {
      "byteLength": 120,
      "buffer": 5
    },
    {
      "byteLength": 240,
      "buffer": 6
    },
    {
      "byteLength": 120,
      "buffer": 7
    },
    {
      "byteLength": 240,
      "buffer": 8
    },
    {
      "byteLength": 120,
      "buffer": 9
    },
    {
      "byteLength": 240,
      "buffer": 10
    },
    {
      "byteLength": 120,
      "buffer": 11
    },
    {
      "byteLength": 240,
      "buffer": 12
    },
    {
      "byteLength": 120,
      "buffer": 13
    },
    {
      "byteLength": 240,
      "buffer": 14
    },
    {
      "byteLength": 120,
      "buffer": 15
    },
    {
      "byteLength": 240,
      "buffer": 16
    },
    {
      "byteLength": 120,
      "buffer": 17
    },
    {
      "byteLength": 240,
      "buffer": 18
    },
    {
      "byteLength": 120,
      "buffer": 19
    },
    {
      "byteLength": 240,
      "buffer": 20
    },
    {
      "byteLength": 120,
      "buffer": 21
    },
    {
      "byteLength": 240,
      "buffer": 22
    },
    {
      "byteLength": 120,
      "buffer": 23
    },
    {
      "byteLength": 240,
      "buffer": 24
    },
    {
      "byteLength": 120,
      "buffer": 25
    },
    {
      "byteLength": 240,
      "buffer": 26
    },
    {
      "byteLength": 120,
      "buffer": 27
    },
    {
      "byteLength": 240,
      "buffer": 28
    },
    {
      "byteLength": 120,
      "buffer": 29
    },
    {
      "byteLength": 240,
      "buffer": 30
    },
    {
      "byteLength": 120,
      "buffer": 31
    },
    {
      "byteLength": 240,
      "buffer": 32
    },
    {
      "byteLength": 120,
      "buffer": 33
    },
    {
      "byteLength": 240,
      "buffer": 34
    },
    {
      "byteLength": 120,
      "buffer": 35
    },
    {
      "byteLength": 240,
      "buffer": 36
    },
    {
      "byteLength": 120,
      "buffer": 37
    },
    {
      "byteLength": 240,
      "buffer": 38
    },
    {
      "byteLength": 120,
      "buffer": 39
    },
    {
      "byteLength": 240,
      "buffer": 40
    },
    {
      "byteLength": 120,
      "buffer": 41
    },
    {
      "byteLength": 240,
      "buffer": 42
    },
    {
      "byteLength": 120,
      "buffer": 43
    }
  ],
  "buffers": [
    {
      "uri": "data:application/octet-stream;base64,",
      "byteLength": 240
    },
    {
      "uri": "data:application/octet-stream;base64,",
      "byteLength": 120
    },
    {
      "uri": "data:application/octet-stream;base64,",
      "byteLength": 240
    },
    {
      "uri": "data:application/octet-stream;base64,",
      "byteLength": 120
    },
    {
      "uri": "data:application/octet-stream;base64,",
      "byteLength": 240
    },
    {
      "uri": "data:application/octet-stream;base64,",
      "byteLength": 120
    },
    {
      "uri": "data:application/octet-stream;base64,",
      "byteLength": 240
    },
    {
      "uri": "data:application/octet-stream;base64,",
      "byteLength": 120
    },
    {
      "uri": "data:application/octet-stream;base64,",
      "byteLength": 240
    },
    {
      "uri": "data:application/octet-stream;base64,",
      "byteLength": 120
    },
    {
      "uri": "data:application/octet-stream;base64,",
      "byteLength": 240
    },
    {
      "uri": "data:application/octet-stream;base64,",
      "byteLength": 120
    },
    {
      "uri": "data:application/octet-stream;base64,",
      "byteLength": 240
    },
    {
      "uri": "data:application/octet-stream;base64,",
      "byteLength": 120
    },
    {
      "uri": "data:application/octet-stream;base64,",
      "byteLength": 240
    },
    {
      "uri": "data:application/octet-stream;base64,",
      "byteLength": 120
    },
    {
      "uri": "data:application/octet-stream;base64,",
      "byteLength": 240
    },
    {
      "uri": "data:application/octet-stream;base64,",
      "byteLength": 120
    },
    {
      "uri": "data:application/octet-stream;base64,",
      "byteLength": 240
    },
    {
      "uri": "data:application/octet-stream;base64,",
      "byteLength": 120
    },
    {
      "uri": "data:application/octet-stream;base64,",
      "byteLength": 240
    },
    {
      "uri": "data:application/octet-stream;base64,",
      "byteLength": 120
    },
    {
      "uri": "data:application/octet-stream;base64,",
      "byteLength": 240
    },
    {
      "uri": "data:application/octet-stream;base64,",
      "byteLength": 120
    },
    {
      "uri": "data:application/octet-stream;base64,",
      "byteLength": 240
    },
    {
      "uri": "data:application/octet-stream;base64,",
      "byteLength": 120
    },
    {
      "uri": "data:application/octet-stream;base64,",
      "byteLength": 240
    },
    {
      "uri": "data:application/octet-stream;base64,",
      "byteLength": 120
    },
    {
      "uri": "data:application/octet-stream;base64,",
      "byteLength": 240
    },
    {
      "uri": "data:application/octet-stream;base64,",
      "byteLength": 120
    },
    {
      "uri": "data:application/octet-stream;base64,",
      "byteLength": 240
    },
    {
      "uri": "data:application/octet-stream;base64,",
      "byteLength": 120
    },
    {
      "uri": "data:application/octet-stream;base64,",
      "byteLength": 240
    },
    {
      "uri": "data:application/octet-stream;base64,",
      "byteLength": 120
    },
    {
      "uri": "data:application/octet-stream;base64,",
      "byteLength": 240
    },
    {
      "uri": "data:application/octet-stream;base64,",
      "byteLength": 120
    },
    {
      "uri": "data:application/octet-stream;base64,",
      "byteLength": 240
    },
    {
      "uri": "data:application/octet-stream;base64,",
      "byteLength": 120
    },
    {
      "uri": "data:application/octet-stream;base64,",
      "byteLength": 240
    },
    {
      "uri": "data:application/octet-stream;base64,",
      "byteLength": 120
    },
    {
      "uri": "data:application/octet-stream;base64,",
      "byteLength": 240
    },
    {
      "uri": "data:application/octet-stream;base64,",
      "byteLength": 120
    },
    {
      "uri": "data:application/octet-stream;base64,",
      "byteLength": 240
    },
    {
      "uri": "data:application/octet-stream;base64,",
      "byteLength": 120
    }
  ]
}