{
  "asset": {
    "version": "2.0",
    "generator": "gltf-builder"
  },
  "scenes": [
    {
      "nodes": [
        0
      ]
    }
  ],
  "nodes": [
    {
      "children": [
        1,
        2,
        3,
        4,
        5,
        6,
        7,
        8,
        9
      ]
    },
    {
      "mesh": 0
    },
    {
      "mesh": 1
    },
    {
      "mesh": 2
    },
    {
      "mesh": 3
    },
    {
      "mesh": 4
    },
    {
      "mesh": 5
    },
    {
      "mesh": 6
    },
    {
      "mesh": 7
    },
    {
      "mesh": 8
    }
  ],
  "meshes": [
    {
      "primitives": [
        {
          "indices": 1,
          "attributes": {
            "POSITION": 0
          }
        }
      ]
    },
    {
      "primitives": [
        {
          "indices": 3,
          "attributes": {
            "POSITION": 2
          }
        }
      ]
    },
    {
      "primitives": [
        {
          "indices": 5,
          "attributes": {
            "POSITION": 4
          }
        }
      ]
    },
    {
      "primitives": [
        {
          "indices": 7,
          "attributes": {
            "POSITION": 6
          }
        }
      ]
    },
    {
      "primitives": [
        {
          "indices": 9,
          "attributes": {
            "POSITION": 8
          }
        }
      ]
    },
    {
      "primitives": [
        {
          "indices": 11,
          "attributes": {
            "POSITION": 10
          }
        }
      ]
    },
    {
      "primitives": [
        {
          "indices": 13,
          "attributes": {
            "POSITION": 12
          }
        }
      ]
    },
    {
      "primitives": [
        {
          "indices": 15,
          "attributes": {
            "POSITION": 14
          }
        }
      ]
    },
    {
      "primitives": [
        {
          "indices": 17,
          "attributes": {
            "POSITION": 16
          }
        }
      ]
    }
  ],
  "accessors": [
    {
      "componentType": 5126,
      "type": "VEC3",
      "min": [
        -0.5,
        0,
        -0.4755282700061798
      ],
      "max": [
        0.5,
        1,
        0.4755282700061798
      ],
      "count": 20,
      "bufferView": 0
    },
    {
      "componentType": 5123,
      "type": "SCALAR",
      "min": [
        0
      ],
      "max": [
        19
      ],
      "count": 60,
      "bufferView": 1
    },
    {
      "componentType": 5126,
      "type": "VEC3",
      "min": [
        -0.5,
        1,
        -0.4755282700061798
      ],
      "max": [
        0.5,
        2.0672497749328613,
        1.0672498941421509
      ],
      "count": 20,
      "bufferView": 2
    },
    {
      "componentType": 5123,
      "type": "SCALAR",
      "min": [
        0
      ],
      "max": [
        19
      ],
      "count": 60,
      "bufferView": 3
    },
    {
      "componentType": 5126,
      "type": "VEC3",
      "min": [
        -0.10000000149011612,
        1.9327501058578491,
        -0.5573635697364807
      ],
      "max": [
        1.5606456995010376,
        3.571493148803711,
        1.0672498941421509
      ],
      "count": 20,
      "bufferView": 4
    },
    {
      "componentType": 5123,
      "type": "SCALAR",
      "min": [
        0
      ],
      "max": [
        19
      ],
      "count": 60,
      "bufferView": 5
    },
    {
      "componentType": 5126,
      "type": "VEC3",
      "min": [
        0.3999999761581421,
        2.428506851196289,
        -0.5706339478492737
      ],
      "max": [
        1.600000023841858,
        4.5,
        0.5706339478492737
      ],
      "count": 20,
      "bufferView": 6
    },
    {
      "componentType": 5123,
      "type": "SCALAR",
      "min": [
        0
      ],
      "max": [
        19
      ],
      "count": 60,
      "bufferView": 7
    },
    {
      "componentType": 5126,
      "type": "VEC3",
      "min": [
        0.3999999761581421,
        4.5,
        -0.5706339478492737
      ],
      "max": [
        1.7114803791046143,
        5.211480140686035,
        0.5706339478492737
      ],
      "count": 20,
      "bufferView": 8
    },
    {
      "componentType": 5123,
      "type": "SCALAR",
      "min": [
        0
      ],
      "max": [
        19
      ],
      "count": 60,
      "bufferView": 9
    },
    {
      "componentType": 5126,
      "type": "VEC3",
      "min": [
        1.2885196208953857,
        4.788519859313965,
        -0.29170164465904236
      ],
      "max": [
        1.8941043615341187,
        5.558820724487305,
        0.29170164465904236
      ],
      "count": 20,
      "bufferView": 10
    },
    {
      "componentType": 5123,
      "type": "SCALAR",
      "min": [
        0
      ],
      "max": [
        19
      ],
      "count": 60,
      "bufferView": 11
    },
    {
      "componentType": 5126,
      "type": "VEC3",
      "min": [
        1.3058956861495972,
        5.201834678649902,
        -0.2938094437122345
      ],
      "max": [
        4,
        5.798165321350098,
        0.2938094437122345
      ],
      "count": 20,
      "bufferView": 12
    },
    {
      "componentType": 5123,
      "type": "SCALAR",
      "min": [
        0
      ],
      "max": [
        19
      ],
      "count": 60,
      "bufferView": 13
    },
    {
      "componentType": 5126,
      "type": "VEC3",
      "min": [
        4,
        5.201834678649902,
        -0.2938094437122345
      ],
      "max": [
        4.709479808807373,
        5.798165321350098,
        0.7094797492027283
      ],
      "count": 20,
      "bufferView": 14
    },
    {
      "componentType": 5123,
      "type": "SCALAR",
      "min": [
        0
      ],
      "max": [
        19
      ],
      "count": 60,
      "bufferView": 15
    },
    {
      "componentType": 5126,
      "type": "VEC3",
      "min": [
        4.199999809265137,
        5.203636646270752,
        0.29052025079727173
      ],
      "max": [
        4.800000190734863,
        5.796363353729248,
        4
      ],
      "count": 20,
      "bufferView": 16
    },
    {
      "componentType": 5123,
      "type": "SCALAR",
      "min": [
        0
      ],
      "max": [
        19
      ],
      "count": 60,
      "bufferView": 17
    }
  ],
  "bufferViews": [
    {
      "byteLength": 240,
      "buffer": 0
    },
    {
      "byteLength": 120,
      "buffer": 1
    },
    {
      "byteLength": 240,
      "buffer": 2
    },
    {
      "byteLength": 120,
      "buffer": 3
    },
    {
      "byteLength": 240,
      "buffer": 4
    },
    {
      "byteLength": 120,
      "buffer": 5
    },
    {
      "byteLength": 240,
      "buffer": 6
    },
    {
      "byteLength": 120,
      "buffer": 7
    },
    {
      "byteLength": 240,
      "buffer": 8
    },
    {
      "byteLength": 120,
      "buffer": 9
    },
    {
      "byteLength": 240,
      "buffer": 10
    },
    {
      "byteLength": 120,
      "buffer": 11
    },
    {
      "byteLength": 240,
      "buffer": 12
    },
    {
      "byteLength": 120,
      "buffer": 13
    },
    {
      "byteLength": 240,
      "buffer": 14
    },
    {
      "byteLength": 120,
      "buffer": 15
    },
    {
      "byteLength": 240,
      "buffer": 16
    },
    {
      "byteLength": 120,
      "buffer": 17
    }
  ],
  "buffers": [
    {
      "uri": "data:application/octet-stream;base64,",
      "byteLength": 240
    },
    {
      "uri": "data:application/octet-stream;base64,",
      "byteLength": 120
    },
    {
      "uri": "data:application/octet-stream;base64,",
      "byteLength": 240
    },
    {
      "uri": "data:application/octet-stream;base64,",
      "byteLength": 120
    },
    {
      "uri": "data:application/octet-stream;base64,",
      "byteLength": 240
    },
    {
      "uri": "data:application/octet-stream;base64,",
      "byteLength": 120
    },
    {
      "uri": "data:application/octet-stream;base64,",
      "byteLength": 240
    },
    {
      "uri": "data:application/octet-stream;base64,",
      "byteLength": 120
    },
    {
      "uri": "data:application/octet-stream;base64,",
      "byteLength": 240
    },
    {
      "uri": "data:application/octet-stream;base64,",
      "byteLength": 120
    },
    {
      "uri": "data:application/octet-stream;base64,",
      "byteLength": 240
    },
    {
      "uri": "data:application/octet-stream;base64,",
      "byteLength": 120
    },
    {
      "uri": "data:application/octet-stream;base64,",
      "byteLength": 240
    },
    {
      "uri": "data:application/octet-stream;base64,",
      "byteLength": 120
    },
    {
      "uri": "data:application/octet-stream;base64,",
      "byteLength": 240
    },
    {
      "uri": "data:application/octet-stream;base64,",
      "byteLength": 120
    },
    {
      "uri": "data:application/octet-stream;base64,",
      "byteLength": 240
    },
    {
      "uri": "data:application/octet-stream;base64,",
      "byteLength": 120
    }
  ]
}